# xmcd CD database file
#
# Track frame offsets:
#	150
#	16343
#	34750
#	55208
#	68592
#	87322
#	95900
#	117222
#	134710
#	154412
#	174978
#	189902
#	200776
#
# Disc length: 2947 seconds
#
# Revision: 1
# Processed by: cddbd v1.5.2PL0 Copyright (c) Steve Scherf et al.
# Submitted via: CDex 1.51
#
DISCID=b60b810d
DTITLE=Jet - Get Born
DYEAR=2003
DGENRE=New Age
TTITLE0=Last Chance
TTITLE1=Are You Gonna Be My Girl
TTITLE2=Rollover D.J. 
TTITLE3=Look What You've Done
TTITLE4=Get What You Need
TTITLE5=Move On 
TTITLE6=Radio Song
TTITLE7=Get Me Outta Here
TTITLE8=Cold Hard B****
TTITLE9=Come Around Again
TTITLE10=Take It or Leave It
TTITLE11=Lazy Gun
TTITLE12=Timothy
EXTD=YEAR: 2003
EXTT0=
EXTT1=
EXTT2=
EXTT3=
EXTT4=
EXTT5=
EXTT6=
EXTT7=
EXTT8=
EXTT9=
EXTT10=
EXTT11=
EXTT12=
PLAYORDER=
